<svg xmlns="http://www.w3.org/2000/svg" shape-rendering="geometricPrecision" text-rendering="geometricPrecision" image-rendering="optimizeQuality" fill-rule="evenodd" clip-rule="evenodd" viewBox="0 0 421 511.605"><path fill="#E44B4D" d="M95.705.014h199.094L421 136.548v317.555c0 31.54-25.961 57.502-57.502 57.502H95.705c-31.55 0-57.502-25.873-57.502-57.502V57.515C38.203 25.886 64.076.014 95.705.014z"/><path fill="#CD4445" d="M341.028 133.408h-.019L421 188.771v-52.066h-54.357c-9.458-.15-17.998-1.274-25.615-3.297z"/><path fill="#FBCFD0" d="M294.8 0L421 136.533v.172h-54.357c-45.068-.718-69.33-23.397-71.843-61.384V0z"/><path fill="#CD4445" fill-rule="nonzero" d="M0 431.901V253.404l.028-1.261c.668-16.446 14.333-29.706 30.936-29.706h7.238v50.589h342.975c12.862 0 23.373 10.51 23.373 23.371v135.504c0 12.83-10.543 23.373-23.373 23.373H23.373C10.541 455.274 0 444.75 0 431.901z"/><path fill="#963232" fill-rule="nonzero" d="M143.448 240.364a8.496 8.496 0 01-8.496-8.497 8.496 8.496 0 018.496-8.497h163.176a8.496 8.496 0 018.496 8.497 8.496 8.496 0 01-8.496 8.497H143.448zm0-59.176a8.496 8.496 0 010-16.993h172.304a8.496 8.496 0 110 16.993H143.448z"/><path fill="#fff" fill-rule="nonzero" d="M11.329 276.171v154.728c0 7.793 6.38 14.178 14.179 14.178H380.175c7.799 0 14.178-6.379 14.178-14.178V297.405c0-7.798-6.388-14.178-14.178-14.178H37.892c-12.618-.096-19.586-1.638-26.563-7.056z"/><path fill="#1A1A1A" fill-rule="nonzero" d="M152.069 378.118l1.965 22.014c-5.504 2.271-12.404 3.406-20.703 3.406-8.298 0-14.958-.874-19.982-2.621-5.023-1.747-8.974-4.497-11.858-8.255-2.882-3.757-4.892-8.167-6.027-13.234-1.136-5.065-1.704-11.312-1.704-18.736 0-7.427.568-13.693 1.704-18.803 1.135-5.11 3.145-9.543 6.027-13.301 5.591-7.248 15.854-10.875 30.793-10.875 3.318 0 7.227.328 11.727.983 4.498.655 7.84 1.464 10.023 2.425l-3.93 20.047c-5.68-1.223-10.875-1.835-15.594-1.835-4.716 0-7.991.437-9.826 1.31-1.835.874-2.753 2.62-2.753 5.241v34.33c3.408.7 6.859 1.048 10.353 1.048 7.424 0 14.02-1.048 19.785-3.144zm67.48-7.469h-26.207v9.959h32.103v20.964h-58.309v-81.894h57.654l-3.276 20.965h-28.172v11.008h26.207v18.998zm92.375 30.923h-28.828l-10.744-24.37h-5.635v24.37h-26.205v-81.894h41.274c18.782 0 28.171 9.565 28.171 28.696 0 13.103-4.061 21.752-12.186 25.944l14.153 27.254zm-45.207-60.929v16.379h6.029c3.145 0 5.437-.327 6.878-.982 1.443-.655 2.162-2.162 2.162-4.522v-5.371c0-2.359-.719-3.866-2.162-4.521-1.441-.655-3.733-.983-6.878-.983h-6.029z"/></svg>